<svg xmlns="http://www.w3.org/2000/svg" viewBox="0 0 600 760" preserveAspectRatio="xMidYMid slice">
  <defs>
    <!-- SKY -->
    <linearGradient id="sky" x1="0" y1="0" x2="0" y2="1">
      <stop offset="0" stop-color="#efe7d4"/>
      <stop offset="0.45" stop-color="#e7dcc4"/>
      <stop offset="1" stop-color="#d8ccae"/>
    </linearGradient>
    <!-- SUN GLOW -->
    <radialGradient id="sun" cx="0.5" cy="0.27" r="0.42">
      <stop offset="0" stop-color="#f7efdc" stop-opacity="0.95"/>
      <stop offset="0.35" stop-color="#f2e9d2" stop-opacity="0.55"/>
      <stop offset="1" stop-color="#f2e9d2" stop-opacity="0"/>
    </radialGradient>
    <!-- HILLS -->
    <linearGradient id="hillFar" x1="0" y1="0" x2="0" y2="1">
      <stop offset="0" stop-color="#cdc7a9"/>
      <stop offset="1" stop-color="#c4bd9d"/>
    </linearGradient>
    <linearGradient id="hillMid" x1="0" y1="0" x2="0" y2="1">
      <stop offset="0" stop-color="#c1ba98"/>
      <stop offset="1" stop-color="#b9b298"/>
    </linearGradient>
    <linearGradient id="hillNear" x1="0" y1="0" x2="0" y2="1">
      <stop offset="0" stop-color="#b6b08e"/>
      <stop offset="1" stop-color="#aaa483"/>
    </linearGradient>
    <!-- TEMPLE STONE -->
    <linearGradient id="stoneFace" x1="0" y1="0" x2="0" y2="1">
      <stop offset="0" stop-color="#f4ecd9"/>
      <stop offset="1" stop-color="#e3d7bc"/>
    </linearGradient>
    <linearGradient id="stoneShade" x1="0" y1="0" x2="1" y2="0">
      <stop offset="0" stop-color="#e3d7bc"/>
      <stop offset="1" stop-color="#cbb994"/>
    </linearGradient>
    <linearGradient id="podium" x1="0" y1="0" x2="0" y2="1">
      <stop offset="0" stop-color="#efe6d0"/>
      <stop offset="1" stop-color="#d9cbac"/>
    </linearGradient>
    <linearGradient id="column" x1="0" y1="0" x2="1" y2="0">
      <stop offset="0" stop-color="#f4ecd9"/>
      <stop offset="0.5" stop-color="#e8ddc4"/>
      <stop offset="1" stop-color="#cbb994"/>
    </linearGradient>
    <linearGradient id="pediment" x1="0" y1="0" x2="0" y2="1">
      <stop offset="0" stop-color="#f4ecd9"/>
      <stop offset="1" stop-color="#dccdaf"/>
    </linearGradient>
    <linearGradient id="doorway" x1="0" y1="0" x2="0" y2="1">
      <stop offset="0" stop-color="#cbb994"/>
      <stop offset="1" stop-color="#b6a37e"/>
    </linearGradient>
    <!-- PATH -->
    <linearGradient id="path" x1="0" y1="0" x2="0" y2="1">
      <stop offset="0" stop-color="#e8ddc4"/>
      <stop offset="1" stop-color="#ddd0b2"/>
    </linearGradient>
    <!-- FOLIAGE -->
    <radialGradient id="shrub" cx="0.4" cy="0.35" r="0.75">
      <stop offset="0" stop-color="#9aa07e"/>
      <stop offset="1" stop-color="#6f7550"/>
    </radialGradient>
    <radialGradient id="shrubLite" cx="0.4" cy="0.35" r="0.75">
      <stop offset="0" stop-color="#a7ad88"/>
      <stop offset="1" stop-color="#868c66"/>
    </radialGradient>
    <linearGradient id="cypress" x1="0" y1="0" x2="1" y2="0">
      <stop offset="0" stop-color="#6b7350"/>
      <stop offset="0.55" stop-color="#59603f"/>
      <stop offset="1" stop-color="#4c5235"/>
    </linearGradient>
    <linearGradient id="ground" x1="0" y1="0" x2="0" y2="1">
      <stop offset="0" stop-color="#9aa07e"/>
      <stop offset="1" stop-color="#6f7550"/>
    </linearGradient>
    <!-- PAPER GRAIN -->
    <filter id="grain" x="0" y="0" width="100%" height="100%">
      <feTurbulence type="fractalNoise" baseFrequency="0.9" numOctaves="2" seed="7" stitchTiles="stitch" result="n"/>
      <feColorMatrix in="n" type="matrix" values="0 0 0 0 0  0 0 0 0 0  0 0 0 0 0  0 0 0 0.6 0"/>
    </filter>
    <radialGradient id="vignette" cx="0.5" cy="0.42" r="0.75">
      <stop offset="0.55" stop-color="#000000" stop-opacity="0"/>
      <stop offset="1" stop-color="#7d6f4e" stop-opacity="0.22"/>
    </radialGradient>
  </defs>

  <!-- ===================== SKY ===================== -->
  <rect x="0" y="0" width="600" height="760" fill="url(#sky)"/>
  <rect x="0" y="0" width="600" height="520" fill="url(#sun)"/>
  <!-- faint sun disc -->
  <circle cx="300" cy="178" r="46" fill="#f6eeda" opacity="0.5"/>
  <circle cx="300" cy="178" r="30" fill="#f8f1de" opacity="0.55"/>

  <!-- drifting soft clouds -->
  <g fill="#f1e8d3" opacity="0.45">
    <ellipse cx="120" cy="120" rx="70" ry="14"/>
    <ellipse cx="170" cy="128" rx="55" ry="11"/>
    <ellipse cx="470" cy="150" rx="80" ry="15"/>
    <ellipse cx="420" cy="158" rx="50" ry="10"/>
    <ellipse cx="510" cy="100" rx="44" ry="9"/>
  </g>
  <g fill="#e9dec6" opacity="0.35">
    <ellipse cx="90" cy="200" rx="60" ry="10"/>
    <ellipse cx="520" cy="220" rx="66" ry="11"/>
  </g>

  <!-- ===================== DISTANT HILLS ===================== -->
  <!-- farthest -->
  <path fill="url(#hillFar)" opacity="0.9" d="M0,330
    C 60,312 110,322 160,316
    C 220,308 250,296 312,300
    C 372,304 410,290 470,298
    C 520,305 560,316 600,308
    L 600,400 L 0,400 Z"/>
  <!-- middle hill (left rise) -->
  <path fill="url(#hillMid)" opacity="0.92" d="M0,360
    C 50,344 96,352 150,344
    C 210,335 244,320 300,326
    C 332,329 356,338 392,336
    C 452,332 500,346 560,338
    C 580,335 592,340 600,338
    L 600,420 L 0,420 Z"/>
  <!-- nearer hill -->
  <path fill="url(#hillNear)" opacity="0.95" d="M0,392
    C 70,378 120,386 180,380
    C 230,375 268,364 300,366
    C 348,369 380,380 432,376
    C 492,371 540,384 600,378
    L 600,470 L 0,470 Z"/>

  <!-- distant tiny tree silhouettes on hills -->
  <g fill="#9aa07e" opacity="0.5">
    <ellipse cx="78" cy="346" rx="9" ry="14"/>
    <ellipse cx="96" cy="350" rx="7" ry="11"/>
    <ellipse cx="500" cy="356" rx="9" ry="14"/>
    <ellipse cx="520" cy="360" rx="7" ry="11"/>
    <ellipse cx="540" cy="358" rx="8" ry="12"/>
  </g>

  <!-- ===================== TEMPLE PLATFORM ===================== -->
  <!-- broad raised stone platform / hilltop -->
  <path fill="url(#podium)" d="M150,470 C 220,452 260,448 300,448 C 340,448 380,452 450,470
    L 470,520 L 130,520 Z"/>
  <!-- upper terrace steps under temple -->
  <rect x="186" y="430" width="228" height="14" rx="2" fill="#efe6d0"/>
  <rect x="186" y="430" width="228" height="14" rx="2" fill="#cbb994" opacity="0.0"/>
  <rect x="196" y="420" width="208" height="12" rx="2" fill="#f4ecd9"/>
  <line x1="196" y1="432" x2="404" y2="432" stroke="#cbb994" stroke-width="1" opacity="0.5"/>
  <line x1="186" y1="444" x2="414" y2="444" stroke="#cbb994" stroke-width="1" opacity="0.5"/>

  <!-- ===================== TEMPLE BUILDING ===================== -->
  <!-- stylobate (base of temple) -->
  <rect x="200" y="406" width="200" height="16" fill="url(#stoneFace)"/>
  <rect x="200" y="406" width="200" height="16" fill="url(#stoneShade)" opacity="0.35"/>
  <rect x="205" y="402" width="190" height="6" fill="#f4ecd9"/>

  <!-- back wall / cella behind colonnade -->
  <rect x="224" y="332" width="152" height="74" fill="#e3d7bc"/>
  <rect x="224" y="332" width="152" height="74" fill="url(#stoneShade)" opacity="0.3"/>

  <!-- COLONNADE: 8 slender columns -->
  <g>
    <!-- column generator: each = shaft + base + capital + flutes -->
    <!-- col 1 -->
    <g>
      <rect x="208" y="338" width="13" height="64" fill="url(#column)"/>
      <line x1="211" y1="340" x2="211" y2="400" stroke="#cbb994" stroke-width="0.8" opacity="0.5"/>
      <line x1="214.5" y1="340" x2="214.5" y2="400" stroke="#d8c9a8" stroke-width="0.8" opacity="0.4"/>
      <line x1="218" y1="340" x2="218" y2="400" stroke="#cbb994" stroke-width="0.8" opacity="0.5"/>
      <rect x="205" y="334" width="19" height="6" rx="1" fill="#f4ecd9"/>
      <rect x="205" y="402" width="19" height="6" rx="1" fill="#e8ddc4"/>
    </g>
    <!-- col 2 -->
    <g>
      <rect x="231" y="338" width="13" height="64" fill="url(#column)"/>
      <line x1="234" y1="340" x2="234" y2="400" stroke="#cbb994" stroke-width="0.8" opacity="0.5"/>
      <line x1="237.5" y1="340" x2="237.5" y2="400" stroke="#d8c9a8" stroke-width="0.8" opacity="0.4"/>
      <line x1="241" y1="340" x2="241" y2="400" stroke="#cbb994" stroke-width="0.8" opacity="0.5"/>
      <rect x="228" y="334" width="19" height="6" rx="1" fill="#f4ecd9"/>
      <rect x="228" y="402" width="19" height="6" rx="1" fill="#e8ddc4"/>
    </g>
    <!-- col 3 -->
    <g>
      <rect x="254" y="338" width="13" height="64" fill="url(#column)"/>
      <line x1="257" y1="340" x2="257" y2="400" stroke="#cbb994" stroke-width="0.8" opacity="0.5"/>
      <line x1="260.5" y1="340" x2="260.5" y2="400" stroke="#d8c9a8" stroke-width="0.8" opacity="0.4"/>
      <line x1="264" y1="340" x2="264" y2="400" stroke="#cbb994" stroke-width="0.8" opacity="0.5"/>
      <rect x="251" y="334" width="19" height="6" rx="1" fill="#f4ecd9"/>
      <rect x="251" y="402" width="19" height="6" rx="1" fill="#e8ddc4"/>
    </g>
    <!-- col 6 -->
    <g>
      <rect x="333" y="338" width="13" height="64" fill="url(#column)"/>
      <line x1="336" y1="340" x2="336" y2="400" stroke="#cbb994" stroke-width="0.8" opacity="0.5"/>
      <line x1="339.5" y1="340" x2="339.5" y2="400" stroke="#d8c9a8" stroke-width="0.8" opacity="0.4"/>
      <line x1="343" y1="340" x2="343" y2="400" stroke="#cbb994" stroke-width="0.8" opacity="0.5"/>
      <rect x="330" y="334" width="19" height="6" rx="1" fill="#f4ecd9"/>
      <rect x="330" y="402" width="19" height="6" rx="1" fill="#e8ddc4"/>
    </g>
    <!-- col 7 -->
    <g>
      <rect x="356" y="338" width="13" height="64" fill="url(#column)"/>
      <line x1="359" y1="340" x2="359" y2="400" stroke="#cbb994" stroke-width="0.8" opacity="0.5"/>
      <line x1="362.5" y1="340" x2="362.5" y2="400" stroke="#d8c9a8" stroke-width="0.8" opacity="0.4"/>
      <line x1="366" y1="340" x2="366" y2="400" stroke="#cbb994" stroke-width="0.8" opacity="0.5"/>
      <rect x="353" y="334" width="19" height="6" rx="1" fill="#f4ecd9"/>
      <rect x="353" y="402" width="19" height="6" rx="1" fill="#e8ddc4"/>
    </g>
    <!-- col 8 -->
    <g>
      <rect x="379" y="338" width="13" height="64" fill="url(#column)"/>
      <line x1="382" y1="340" x2="382" y2="400" stroke="#cbb994" stroke-width="0.8" opacity="0.5"/>
      <line x1="385.5" y1="340" x2="385.5" y2="400" stroke="#d8c9a8" stroke-width="0.8" opacity="0.4"/>
      <line x1="389" y1="340" x2="389" y2="400" stroke="#cbb994" stroke-width="0.8" opacity="0.5"/>
      <rect x="376" y="334" width="19" height="6" rx="1" fill="#f4ecd9"/>
      <rect x="376" y="402" width="19" height="6" rx="1" fill="#e8ddc4"/>
    </g>
  </g>

  <!-- CENTRAL TALLER PORTICO -->
  <!-- portico recess / doorway -->
  <rect x="280" y="340" width="40" height="66" rx="1" fill="url(#doorway)"/>
  <path d="M280,340 Q300,328 320,340 L320,346 Q300,335 280,346 Z" fill="#b6a37e"/>
  <!-- inner shadow of doorway -->
  <rect x="287" y="350" width="26" height="56" fill="#a8946f" opacity="0.6"/>
  <line x1="300" y1="350" x2="300" y2="406" stroke="#8f7c58" stroke-width="1.2" opacity="0.5"/>
  <!-- two portico columns flanking entrance (taller) -->
  <g>
    <rect x="277" y="330" width="14" height="76" fill="url(#column)"/>
    <line x1="280.5" y1="332" x2="280.5" y2="404" stroke="#cbb994" stroke-width="0.8" opacity="0.5"/>
    <line x1="284" y1="332" x2="284" y2="404" stroke="#d8c9a8" stroke-width="0.8" opacity="0.4"/>
    <line x1="287.5" y1="332" x2="287.5" y2="404" stroke="#cbb994" stroke-width="0.8" opacity="0.5"/>
    <rect x="274" y="326" width="20" height="6" rx="1" fill="#f4ecd9"/>
    <rect x="274" y="404" width="20" height="6" rx="1" fill="#e8ddc4"/>
  </g>
  <g>
    <rect x="309" y="330" width="14" height="76" fill="url(#column)"/>
    <line x1="312.5" y1="332" x2="312.5" y2="404" stroke="#cbb994" stroke-width="0.8" opacity="0.5"/>
    <line x1="316" y1="332" x2="316" y2="404" stroke="#d8c9a8" stroke-width="0.8" opacity="0.4"/>
    <line x1="319.5" y1="332" x2="319.5" y2="404" stroke="#cbb994" stroke-width="0.8" opacity="0.5"/>
    <rect x="306" y="326" width="20" height="6" rx="1" fill="#f4ecd9"/>
    <rect x="306" y="404" width="20" height="6" rx="1" fill="#e8ddc4"/>
  </g>

  <!-- ENTABLATURE (beam across the columns) -->
  <rect x="198" y="318" width="204" height="16" fill="url(#stoneFace)"/>
  <rect x="198" y="318" width="204" height="16" fill="url(#stoneShade)" opacity="0.3"/>
  <line x1="200" y1="326" x2="400" y2="326" stroke="#cbb994" stroke-width="0.8" opacity="0.5"/>
  <rect x="196" y="314" width="208" height="5" fill="#f4ecd9"/>

  <!-- TRIANGULAR PEDIMENT (gable) -->
  <polygon points="300,266 196,316 404,316" fill="url(#pediment)"/>
  <polygon points="300,266 196,316 300,316" fill="#f4ecd9" opacity="0.5"/>
  <polygon points="300,266 404,316 300,316" fill="#cbb994" opacity="0.28"/>
  <!-- pediment cornice -->
  <polygon points="300,260 190,316 196,316 300,266 404,316 410,316" fill="#f4ecd9"/>
  <line x1="196" y1="316" x2="404" y2="316" stroke="#cbb994" stroke-width="1.2" opacity="0.5"/>
  <!-- decorative rosette in tympanum -->
  <circle cx="300" cy="298" r="10" fill="#e8ddc4"/>
  <circle cx="300" cy="298" r="10" fill="none" stroke="#cbb994" stroke-width="1" opacity="0.6"/>
  <g fill="#cbb994" opacity="0.55">
    <ellipse cx="300" cy="291" rx="2" ry="4"/>
    <ellipse cx="300" cy="305" rx="2" ry="4"/>
    <ellipse cx="293" cy="298" rx="4" ry="2"/>
    <ellipse cx="307" cy="298" rx="4" ry="2"/>
  </g>
  <circle cx="300" cy="298" r="2.5" fill="#d8c9a8"/>
  <!-- acroteria (roof tip ornaments) -->
  <circle cx="300" cy="258" r="4" fill="#e8ddc4" stroke="#cbb994" stroke-width="0.8"/>
  <circle cx="190" cy="316" r="3.5" fill="#e8ddc4" stroke="#cbb994" stroke-width="0.7"/>
  <circle cx="410" cy="316" r="3.5" fill="#e8ddc4" stroke="#cbb994" stroke-width="0.7"/>

  <!-- soft shadow cast by temple to the right -->
  <polygon points="400,406 430,470 400,470" fill="#cbb994" opacity="0.25"/>

  <!-- ===================== GRAND STAIRCASE / PATH ===================== -->
  <!-- central descending stair from platform to foreground -->
  <path fill="url(#path)" d="M262,520 L338,520 L392,760 L208,760 Z"/>
  <path fill="#e8ddc4" d="M268,520 L332,520 L378,720 L222,720 Z" opacity="0.55"/>
  <!-- step lines down the staircase -->
  <g stroke="#cdbf9f" stroke-width="1.4" opacity="0.6" fill="none">
    <line x1="259" y1="536" x2="341" y2="536"/>
    <line x1="256" y1="556" x2="344" y2="556"/>
    <line x1="252" y1="580" x2="348" y2="580"/>
    <line x1="248" y1="608" x2="352" y2="608"/>
    <line x1="243" y1="640" x2="357" y2="640"/>
    <line x1="238" y1="676" x2="362" y2="676"/>
    <line x1="232" y1="716" x2="368" y2="716"/>
  </g>
  <!-- path edging -->
  <path d="M262,520 L208,760" stroke="#cdbf9f" stroke-width="2.5" fill="none" opacity="0.7"/>
  <path d="M338,520 L392,760" stroke="#cdbf9f" stroke-width="2.5" fill="none" opacity="0.7"/>

  <!-- ===================== TERRACED GARDENS ===================== -->
  <!-- terrace bands flanking the stair -->
  <path fill="url(#ground)" opacity="0.95" d="M0,520 L262,520 L240,600 L0,600 Z"/>
  <path fill="url(#ground)" opacity="0.95" d="M338,520 L600,520 L600,600 L360,600 Z"/>
  <path fill="#868c66" opacity="0.9" d="M0,600 L240,600 L210,690 L0,690 Z"/>
  <path fill="#868c66" opacity="0.9" d="M360,600 L600,600 L600,690 L390,690 Z"/>
  <path fill="#6f7550" opacity="0.95" d="M0,690 L210,690 L185,760 L0,760 Z"/>
  <path fill="#6f7550" opacity="0.95" d="M390,690 L600,690 L600,760 L415,760 Z"/>

  <!-- low garden hedges along terrace edges -->
  <g fill="#868c66" opacity="0.8">
    <ellipse cx="60" cy="520" rx="40" ry="9"/>
    <ellipse cx="150" cy="522" rx="44" ry="9"/>
    <ellipse cx="450" cy="520" rx="40" ry="9"/>
    <ellipse cx="540" cy="522" rx="44" ry="9"/>
  </g>

  <!-- ===================== CYPRESS TREES ===================== -->
  <!-- tall slender cypresses flanking the temple & path -->
  <g>
    <!-- left near temple -->
    <path d="M178,452 C 170,420 172,392 184,372 C 196,392 198,420 190,452 Z" fill="url(#cypress)"/>
    <rect x="182" y="450" width="4" height="12" fill="#5a4f37"/>
    <!-- right near temple -->
    <path d="M422,452 C 414,420 416,392 428,372 C 440,392 442,420 434,452 Z" fill="url(#cypress)"/>
    <rect x="426" y="450" width="4" height="12" fill="#5a4f37"/>
  </g>
  <g>
    <!-- mid-left along path -->
    <path d="M150,556 C 140,512 143,476 158,452 C 173,476 176,512 166,556 Z" fill="url(#cypress)"/>
    <rect x="155" y="552" width="5" height="16" fill="#5a4f37"/>
    <!-- mid-right along path -->
    <path d="M450,556 C 440,512 443,476 458,452 C 473,476 476,512 466,556 Z" fill="url(#cypress)"/>
    <rect x="455" y="552" width="5" height="16" fill="#5a4f37"/>
  </g>
  <g>
    <!-- lower-left -->
    <path d="M110,650 C 98,596 102,552 120,522 C 138,552 142,596 130,650 Z" fill="url(#cypress)"/>
    <rect x="116" y="644" width="6" height="20" fill="#544a34"/>
    <!-- lower-right -->
    <path d="M490,650 C 478,596 482,552 500,522 C 518,552 522,596 510,650 Z" fill="url(#cypress)"/>
    <rect x="496" y="644" width="6" height="20" fill="#544a34"/>
  </g>
  <!-- cypress inner shading highlights -->
  <g fill="#7a8059" opacity="0.5">
    <path d="M184,378 C 190,400 190,430 186,450 C 184,430 184,400 184,378 Z"/>
    <path d="M158,458 C 165,488 165,524 160,552 C 157,524 157,488 158,458 Z"/>
    <path d="M120,528 C 128,568 128,608 122,646 C 118,608 118,568 120,528 Z"/>
  </g>

  <!-- ===================== ROUNDED SHRUBS / GARDEN BEDS ===================== -->
  <g>
    <ellipse cx="222" cy="500" rx="26" ry="18" fill="url(#shrub)"/>
    <ellipse cx="378" cy="500" rx="26" ry="18" fill="url(#shrub)"/>
    <ellipse cx="190" cy="560" rx="30" ry="20" fill="url(#shrubLite)"/>
    <ellipse cx="410" cy="560" rx="30" ry="20" fill="url(#shrubLite)"/>
    <ellipse cx="155" cy="630" rx="36" ry="24" fill="url(#shrub)"/>
    <ellipse cx="445" cy="630" rx="36" ry="24" fill="url(#shrub)"/>
    <ellipse cx="95" cy="600" rx="28" ry="18" fill="url(#shrubLite)"/>
    <ellipse cx="505" cy="600" rx="28" ry="18" fill="url(#shrubLite)"/>
    <ellipse cx="120" cy="710" rx="44" ry="28" fill="url(#shrub)"/>
    <ellipse cx="480" cy="710" rx="44" ry="28" fill="url(#shrub)"/>
    <ellipse cx="55" cy="660" rx="34" ry="22" fill="url(#shrubLite)"/>
    <ellipse cx="545" cy="660" rx="34" ry="22" fill="url(#shrubLite)"/>
  </g>
  <!-- foreground shrub clusters -->
  <g fill="#6f7550" opacity="0.9">
    <ellipse cx="40" cy="740" rx="50" ry="30"/>
    <ellipse cx="560" cy="740" rx="50" ry="30"/>
    <ellipse cx="200" cy="752" rx="38" ry="22"/>
    <ellipse cx="400" cy="752" rx="38" ry="22"/>
  </g>

  <!-- ===================== TINY FLOWERS ===================== -->
  <g>
    <!-- dusty rose dots -->
    <g fill="#cda8a0">
      <circle cx="214" cy="498" r="2"/>
      <circle cx="230" cy="505" r="1.8"/>
      <circle cx="384" cy="497" r="2"/>
      <circle cx="372" cy="506" r="1.8"/>
      <circle cx="182" cy="558" r="2.1"/>
      <circle cx="200" cy="564" r="1.8"/>
      <circle cx="418" cy="557" r="2.1"/>
      <circle cx="148" cy="628" r="2.2"/>
      <circle cx="165" cy="636" r="1.9"/>
      <circle cx="452" cy="628" r="2.2"/>
      <circle cx="110" cy="706" r="2.3"/>
      <circle cx="132" cy="714" r="2"/>
      <circle cx="488" cy="708" r="2.3"/>
      <circle cx="88" cy="598" r="1.8"/>
      <circle cx="512" cy="602" r="1.8"/>
    </g>
    <!-- cream dots -->
    <g fill="#f2ead8">
      <circle cx="222" cy="494" r="1.7"/>
      <circle cx="206" cy="503" r="1.5"/>
      <circle cx="378" cy="503" r="1.7"/>
      <circle cx="390" cy="494" r="1.5"/>
      <circle cx="192" cy="552" r="1.7"/>
      <circle cx="178" cy="566" r="1.5"/>
      <circle cx="406" cy="566" r="1.6"/>
      <circle cx="160" cy="622" r="1.8"/>
      <circle cx="146" cy="640" r="1.6"/>
      <circle cx="448" cy="640" r="1.7"/>
      <circle cx="122" cy="700" r="1.9"/>
      <circle cx="104" cy="716" r="1.6"/>
      <circle cx="496" cy="700" r="1.9"/>
      <circle cx="62" cy="656" r="1.6"/>
      <circle cx="540" cy="664" r="1.6"/>
    </g>
  </g>

  <!-- faint flowering accents on the platform edge -->
  <g fill="#cda8a0" opacity="0.85">
    <circle cx="160" cy="520" r="1.6"/>
    <circle cx="172" cy="524" r="1.4"/>
    <circle cx="440" cy="520" r="1.6"/>
    <circle cx="428" cy="524" r="1.4"/>
  </g>

  <!-- ===================== ATMOSPHERE / GRAIN / VIGNETTE ===================== -->
  <!-- subtle haze over the lower scene to keep it dreamy -->
  <rect x="0" y="440" width="600" height="120" fill="#efe7d4" opacity="0.12"/>
  <!-- paper grain overlay -->
  <rect x="0" y="0" width="600" height="760" filter="url(#grain)" opacity="0.06"/>
  <!-- soft vignette -->
  <rect x="0" y="0" width="600" height="760" fill="url(#vignette)"/>
</svg>
